<svg width="15" height="15" viewBox="0 0 15 15" fill="none" xmlns="http://www.w3.org/2000/svg">
<path d="M11.5414 0H3.45859C1.54846 0 0 1.54846 0 3.45859V11.5414C0 13.4515 1.54846 15 3.45859 15H11.5414C13.4515 15 15 13.4515 15 11.5414V3.45859C15 1.54846 13.4515 0 11.5414 0Z" fill="url(#paint0_linear_1_5592)"/>
<path d="M9.91903 2.95942C10.4885 2.96171 11.0339 3.18894 11.4366 3.59159C11.8392 3.99425 12.0665 4.53971 12.0688 5.10914V9.89111C12.0665 10.4605 11.8392 11.006 11.4366 11.4087C11.0339 11.8113 10.4885 12.0385 9.91903 12.0408H5.08095C4.51151 12.0385 3.96605 11.8113 3.5634 11.4087C3.16074 11.006 2.93352 10.4605 2.93122 9.89111V5.10914C2.93352 4.53971 3.16074 3.99425 3.5634 3.59159C3.96605 3.18894 4.51151 2.96171 5.08095 2.95942H9.91903ZM9.91903 1.95955H5.08095C3.34859 1.95955 1.93103 3.37872 1.93103 5.10947V9.89111C1.93103 11.6235 3.3502 13.041 5.08095 13.041H9.91903C11.6514 13.041 13.0689 11.6219 13.0689 9.89111V5.10914C13.0689 3.37679 11.6514 1.95923 9.91903 1.95923V1.95955Z" fill="white"/>
<path d="M7.49995 5.63354C7.86912 5.63354 8.22999 5.74301 8.53694 5.94811C8.84389 6.1532 9.08313 6.44472 9.2244 6.78578C9.36568 7.12684 9.40264 7.50214 9.33062 7.86421C9.2586 8.22629 9.08083 8.55887 8.81979 8.81991C8.55875 9.08095 8.22617 9.25872 7.86409 9.33074C7.50202 9.40276 7.12672 9.3658 6.78566 9.22452C6.44459 9.08325 6.15308 8.84401 5.94798 8.53706C5.74289 8.23011 5.63342 7.86924 5.63342 7.50007C5.63401 7.00522 5.83086 6.53081 6.18077 6.18089C6.53069 5.83098 7.0051 5.63414 7.49995 5.63354ZM7.49995 4.63367C6.93303 4.63367 6.37884 4.80178 5.90746 5.11674C5.43608 5.43171 5.06869 5.87938 4.85174 6.40315C4.63479 6.92691 4.57802 7.50325 4.68862 8.05928C4.79922 8.61531 5.07222 9.12605 5.4731 9.52693C5.87397 9.9278 6.38471 10.2008 6.94074 10.3114C7.49677 10.422 8.07311 10.3652 8.59688 10.1483C9.12064 9.93133 9.56831 9.56394 9.88328 9.09256C10.1982 8.62118 10.3664 8.06699 10.3664 7.50007C10.3664 6.73985 10.0644 6.01077 9.5268 5.47322C8.98925 4.93566 8.26017 4.63367 7.49995 4.63367Z" fill="white"/>
<defs>
<linearGradient id="paint0_linear_1_5592" x1="9.83099" y1="15.6296" x2="5.16901" y2="-0.629597" gradientUnits="userSpaceOnUse">
<stop stop-color="#FFDB73"/>
<stop offset="0.08" stop-color="#FDAD4E"/>
<stop offset="0.15" stop-color="#FB832E"/>
<stop offset="0.19" stop-color="#FA7321"/>
<stop offset="0.23" stop-color="#F6692F"/>
<stop offset="0.37" stop-color="#E84A5A"/>
<stop offset="0.48" stop-color="#E03675"/>
<stop offset="0.55" stop-color="#DD2F7F"/>
<stop offset="0.68" stop-color="#B43D97"/>
<stop offset="0.97" stop-color="#4D60D4"/>
<stop offset="1" stop-color="#4264DB"/>
</linearGradient>
</defs>
</svg>
